{
 "cells": [
  {
   "cell_type": "markdown",
   "id": "bc71c82b",
   "metadata": {},
   "source": [
    "A Journey to the Centre of the Earth by Jules Verne\n",
    "\n",
    "Source https://www.gutenberg.org/ebooks/18857\n",
    "\n",
    "Ref https://en.wikipedia.org/wiki/Journey_to_the_Center_of_the_Earth"
   ]
  },
  {
   "cell_type": "code",
   "execution_count": null,
   "id": "8e0fc48f",
   "metadata": {},
   "outputs": [],
   "source": [
    "# Concept art\n",
    "\n",
    "Summary: \n",
    "\n",
    "Genre: \n",
    "\n",
    "Background: \n",
    "\n",
    "Main charactor:\n",
    "\n",
    "Prompt:\n",
    "Main charactor + Background + Summary\n",
    "--ar 3:2 --no text\n",
    "\n",
    "=== GPT4 ===\n",
    "As image prompt generator, write prompt to generate cover image of book 'xxx' following steps below\n",
    "- Suggest 5 options of the cover images, wait for me to confirm\n",
    "- Suggest art style eg classic art, ultra-realistic, photorealism, cartoon, japanese anime, classic movie, classic photo, illustration, black and white and others as you see fit , wait for me to confirm\n",
    "- Suggest composition eg cinematic still, close up short, close up short, full body short, landscape and others as you see fit , wait for me to confirm\n",
    "- list keys elements of the image to explain scene / subject / action / setting, at least should include: era, main character, scene, evant detail, location, time of the day, atmosphere and others as you see fit\n",
    "- explain each element in detail according to choices above\n",
    "- Do not use charactors name, describe them by their visual instead\n",
    "- wait for feedback and confirm before continue to next step\n",
    "- generate prompt from explanations above start from art style, composition, era and all elements above in full detail with comma separated\n",
    "- end with ' use Midjourney v5,  --ar 16:9 --no text'\n",
    "\n",
    "\n",
    "====\n",
    "\n",
    "An ultra-realistic cinematic still of a group of explorers making their way towards a volcano at sunset, as seen from the back. The image should show the silhouettes of the explorers against the backdrop of the glowing volcano, with warm, orange tones lighting the scene and dark clouds in the sky to create an ominous atmosphere. The explorers should be depicted as a group of five, with the main character leading the way. He wears a leather jacket with a high collar and a leather cap, and carries a backpack with ropes and other gear. The rest of the group wears similar outfits, with jackets and backpacks, and they carry various tools and equipment.\n",
    "\n",
    "The volcano should be depicted as imposing and dangerous, with smoke and steam rising from its crater. The scene should convey a sense of adventure and danger, with the explorers on a perilous journey into the unknown.\n",
    "\n",
    "The era should be Victorian period (1860s). Use Midjourney v5, --ar 16:9 --no text."
   ]
  },
  {
   "cell_type": "code",
   "execution_count": null,
   "id": "0229b767",
   "metadata": {},
   "outputs": [],
   "source": [
    "# Youtube description\n",
    "\n",
    "Prompt: Write title, description, and keywords of youtube video of full audiobook of the classic book \"A Journey to the Centre of the Earth by Jules Verne\"\n",
    "    \n",
    "Title: A Journey to the Centre of the Earth Full Audiobook by Jules Verne\n",
    "\n",
    "Description: Join us on an epic adventure as we explore the depths of the Earth in Jules Verne's classic novel, \"A Journey to the Centre of the Earth.\" This full audiobook is narrated by a professional voice actor, bringing the story to life with vivid descriptions and engaging dialogue. Sit back, relax, and immerse yourself in one of the greatest works of science fiction of all time.\n",
    "\n",
    "0:00:00 Chapter 1\n",
    "0:12:47 Chaptor 2\n",
    "0:20:52 Chaptor 3\n",
    "0:37:06 Chaptor 4\n",
    "0:45:08 Chaptor 5\n",
    "0:53:02 Chaptor 6\n",
    "1:06:47 Chaptor 7\n",
    "1:15:29 Chaptor 8\n",
    "1:30:44 Chaptor 9\n",
    "1:43:16 Chaptor 10\n",
    "1:55:09 Chaptor 11\n",
    "2:08:33 Chaptor 12\n",
    "2:24:48 Chaptor 13\n",
    "2:39:44 Chaptor 14\n",
    "2:51:46 Chaptor 15\n",
    "3:03:32 Chaptor 16\n",
    "3:15:32 Chaptor 17\n",
    "3:27:37 Chaptor 18\n",
    "3:39:01 Chaptor 19\n",
    "3:46:22 Chaptor 20\n",
    "3:58:26 Chaptor 21\n",
    "4:07:01 Chaptor 22\n",
    "4:17:49 Chaptor 23\n",
    "4:25:18 Chaptor 24\n",
    "4:35:17 Chaptor 25\n",
    "4:49:21 Chaptor 26\n",
    "4:58:56 Chaptor 27\n",
    "5:15:41 Chaptor 28\n",
    "5:28:34 Chaptor 29\n",
    "5:46:56 Chaptor 30\n",
    "6:06:34 Chaptor 31\n",
    "6:18:35 Chaptor 32\n",
    "6:33:07 Chaptor 33\n",
    "6:49:17 Chaptor 34\n",
    "7:00:54 Chaptor 35\n",
    "7:15:40 Chaptor 36\n",
    "7:24:53 Chaptor 37\n",
    "7:32:45 Chaptor 38\n",
    "7:46:39 Chaptor 39\n",
    "8:00:00 Chaptor 40\n",
    "8:13:57 Chaptor 41\n",
    "8:28:28 Chaptor 42\n",
    "8:48:07 Chaptor 43\n",
    "9:00:52 Chaptor 44\n",
    "        \n",
    "Credits\n",
    "Text: Project Gutenberg https://www.gutenberg.org/ebooks/18857\n",
    "Voice: Google Cloud Text-to-Speech\n",
    "Produced by: The Classic Narrator 2023\n",
    "    \n",
    "Keywords: Jules Verne, A Journey to the Centre of the Earth, audiobook, full, classic, novel, science fiction, adventure, exploration, narration, voice actor, listen, story, epic, depths of the Earth.\n"
   ]
  },
  {
   "cell_type": "code",
   "execution_count": null,
   "id": "77a554fb",
   "metadata": {},
   "outputs": [],
   "source": [
    "# Voice test\n",
    "\n",
    "from TextToAudiobook import *\n",
    "test_tta = TextToAudiobook(\"test\")\n",
    "\n",
    "\n",
    "\n",
    "text = '''\n",
    "\n",
    "xxxx\n",
    "\n",
    "'''\n",
    "\n",
    "# Test voices\n",
    "voice = texttospeech.VoiceSelectionParams(\n",
    "    language_code=\"en-GB\",\n",
    "    name=\"en-GB-Neural2-A\",\n",
    ")\n",
    "\n",
    "voice = texttospeech.VoiceSelectionParams(\n",
    "    language_code=\"en-GB\",\n",
    "    name=\"en-GB-Standard-A\",\n",
    ")\n",
    "\n",
    "\n",
    "audio_config = texttospeech.AudioConfig(\n",
    "    audio_encoding=texttospeech.AudioEncoding.MP3,\n",
    "    speaking_rate=0.9\n",
    ")\n",
    "\n",
    "test_tta.synthesize_ssml(text, \"output.mp3\", voice, audio_config)\n",
    "# test_tta.synthesize_text(text, \"output.mp3\", voice, audio_config)\n",
    "\n"
   ]
  },
  {
   "cell_type": "code",
   "execution_count": 1,
   "id": "0326b8d9",
   "metadata": {},
   "outputs": [],
   "source": [
    "%load_ext autoreload\n",
    "%reload_ext autoreload\n",
    "%autoreload 2"
   ]
  },
  {
   "cell_type": "code",
   "execution_count": 3,
   "id": "c3793734",
   "metadata": {},
   "outputs": [],
   "source": [
    "# Text to script\n",
    "\n",
    "from TextToAudiobook import *\n",
    "\n",
    "folder_name = \"JourneyToTheCentreOfTheEarth\"\n",
    "file_name = \"18857-1.txt\"\n",
    "\n",
    "test_tta = TextToAudiobook(folder_name, char_limit_per_call=1000)"
   ]
  },
  {
   "cell_type": "code",
   "execution_count": 4,
   "id": "4b63cb09",
   "metadata": {},
   "outputs": [
    {
     "name": "stdout",
     "output_type": "stream",
     "text": [
      "Clean: 10825 lines\n",
      "./JourneyToTheCentreOfTheEarth/project_file/clean/18857-1.txt\n",
      "Tag: 10825 lines\n",
      "./JourneyToTheCentreOfTheEarth/project_file/tag/18857-1.txt\n",
      "Break: 10825 lines\n",
      "./JourneyToTheCentreOfTheEarth/project_file/break/18857-1.txt\n",
      "Split: 577 files\n",
      "./JourneyToTheCentreOfTheEarth/project_file/split/18857-1_txt/\n"
     ]
    }
   ],
   "source": [
    "#1 Clean raw file and copy to clean folder\n",
    "print(test_tta.clean_txt_raw(file_name))\n",
    "\n",
    "#2 Tag speech in clean file and copy to tag folder\n",
    "print(test_tta.tag_txt_clean(file_name))\n",
    "\n",
    "#3 Mark break point by chapter and characters limit\n",
    "print(test_tta.break_txt_tag(file_name))\n",
    "\n",
    "#4 Split into files by chapter and characters break\n",
    "print(test_tta.split_txt_break(file_name))"
   ]
  },
  {
   "cell_type": "code",
   "execution_count": 19,
   "id": "750cd4eb",
   "metadata": {},
   "outputs": [
    {
     "name": "stdout",
     "output_type": "stream",
     "text": [
      "Generate audio => ./JourneyToTheCentreOfTheEarth/project_file/audio/18857-1_txt/0042_007.mp3\n",
      "Generate audio => ./JourneyToTheCentreOfTheEarth/project_file/audio/18857-1_txt/0042_008.mp3\n",
      "Generate audio => ./JourneyToTheCentreOfTheEarth/project_file/audio/18857-1_txt/0042_009.mp3\n",
      "Generate audio => ./JourneyToTheCentreOfTheEarth/project_file/audio/18857-1_txt/0042_010.mp3\n",
      "Generate audio => ./JourneyToTheCentreOfTheEarth/project_file/audio/18857-1_txt/0042_011.mp3\n",
      "Generate audio => ./JourneyToTheCentreOfTheEarth/project_file/audio/18857-1_txt/0042_012.mp3\n",
      "Generate audio => ./JourneyToTheCentreOfTheEarth/project_file/audio/18857-1_txt/0042_013.mp3\n",
      "Generate audio => ./JourneyToTheCentreOfTheEarth/project_file/audio/18857-1_txt/0042_014.mp3\n",
      "Generate audio => ./JourneyToTheCentreOfTheEarth/project_file/audio/18857-1_txt/0042_015.mp3\n",
      "Generate audio => ./JourneyToTheCentreOfTheEarth/project_file/audio/18857-1_txt/0042_016.mp3\n",
      "Generate audio => ./JourneyToTheCentreOfTheEarth/project_file/audio/18857-1_txt/0042_017.mp3\n",
      "Generate audio => ./JourneyToTheCentreOfTheEarth/project_file/audio/18857-1_txt/0042_018.mp3\n",
      "Generate audio => ./JourneyToTheCentreOfTheEarth/project_file/audio/18857-1_txt/0042_019.mp3\n",
      "Generate audio => ./JourneyToTheCentreOfTheEarth/project_file/audio/18857-1_txt/0042_020.mp3\n",
      "Generate audio => ./JourneyToTheCentreOfTheEarth/project_file/audio/18857-1_txt/0043_001.mp3\n",
      "Generate audio => ./JourneyToTheCentreOfTheEarth/project_file/audio/18857-1_txt/0043_002.mp3\n",
      "Generate audio => ./JourneyToTheCentreOfTheEarth/project_file/audio/18857-1_txt/0043_003.mp3\n",
      "Generate audio => ./JourneyToTheCentreOfTheEarth/project_file/audio/18857-1_txt/0043_004.mp3\n",
      "Generate audio => ./JourneyToTheCentreOfTheEarth/project_file/audio/18857-1_txt/0043_005.mp3\n",
      "Generate audio => ./JourneyToTheCentreOfTheEarth/project_file/audio/18857-1_txt/0043_006.mp3\n",
      "Generate audio => ./JourneyToTheCentreOfTheEarth/project_file/audio/18857-1_txt/0043_007.mp3\n",
      "Generate audio => ./JourneyToTheCentreOfTheEarth/project_file/audio/18857-1_txt/0043_008.mp3\n",
      "Generate audio => ./JourneyToTheCentreOfTheEarth/project_file/audio/18857-1_txt/0043_009.mp3\n",
      "Generate audio => ./JourneyToTheCentreOfTheEarth/project_file/audio/18857-1_txt/0043_010.mp3\n",
      "Generate audio => ./JourneyToTheCentreOfTheEarth/project_file/audio/18857-1_txt/0043_011.mp3\n",
      "Generate audio => ./JourneyToTheCentreOfTheEarth/project_file/audio/18857-1_txt/0043_012.mp3\n",
      "Generate audio => ./JourneyToTheCentreOfTheEarth/project_file/audio/18857-1_txt/0043_013.mp3\n",
      "Generate audio => ./JourneyToTheCentreOfTheEarth/project_file/audio/18857-1_txt/0043_014.mp3\n",
      "Generate audio => ./JourneyToTheCentreOfTheEarth/project_file/audio/18857-1_txt/0043_015.mp3\n",
      "Generate audio => ./JourneyToTheCentreOfTheEarth/project_file/audio/18857-1_txt/0044_001.mp3\n",
      "Generate audio => ./JourneyToTheCentreOfTheEarth/project_file/audio/18857-1_txt/0044_002.mp3\n",
      "Generate audio => ./JourneyToTheCentreOfTheEarth/project_file/audio/18857-1_txt/0044_003.mp3\n",
      "Generate audio => ./JourneyToTheCentreOfTheEarth/project_file/audio/18857-1_txt/0044_004.mp3\n",
      "Generate audio => ./JourneyToTheCentreOfTheEarth/project_file/audio/18857-1_txt/0044_005.mp3\n",
      "Generate audio => ./JourneyToTheCentreOfTheEarth/project_file/audio/18857-1_txt/0044_006.mp3\n",
      "Generate audio => ./JourneyToTheCentreOfTheEarth/project_file/audio/18857-1_txt/0044_007.mp3\n",
      "Generate audio => ./JourneyToTheCentreOfTheEarth/project_file/audio/18857-1_txt/0044_008.mp3\n",
      "Synthesize: 37 files\n",
      "./JourneyToTheCentreOfTheEarth/project_file/audio/18857-1_txt/\n"
     ]
    }
   ],
   "source": [
    "# Split into files by chapter and characters break\n",
    "voice = texttospeech.VoiceSelectionParams(\n",
    "    language_code=\"en-US\",\n",
    "    name=\"en-US-Neural2-H\",\n",
    ")\n",
    "\n",
    "audio_config = texttospeech.AudioConfig(\n",
    "    audio_encoding=texttospeech.AudioEncoding.MP3,\n",
    "    speaking_rate=0.85\n",
    ")\n",
    "print(test_tta.synthesize_txt_split(file_name, file_limit=100, voice=voice, audio_config=audio_config))\n"
   ]
  },
  {
   "cell_type": "code",
   "execution_count": 21,
   "id": "ab7994d6",
   "metadata": {},
   "outputs": [
    {
     "name": "stdout",
     "output_type": "stream",
     "text": [
      "Generate track list: ./JourneyToTheCentreOfTheEarth/project_file/audio/18857-1_txt/track_list.txt [total: 577 files]\n"
     ]
    },
    {
     "name": "stderr",
     "output_type": "stream",
     "text": [
      "ffmpeg version 5.1.2 Copyright (c) 2000-2022 the FFmpeg developers\n",
      "  built with Apple clang version 14.0.0 (clang-1400.0.29.102)\n",
      "  configuration: --prefix=/usr/local/Cellar/ffmpeg/5.1.2 --enable-shared --enable-pthreads --enable-version3 --cc=clang --host-cflags= --host-ldflags= --enable-ffplay --enable-gnutls --enable-gpl --enable-libaom --enable-libbluray --enable-libdav1d --enable-libmp3lame --enable-libopus --enable-librav1e --enable-librist --enable-librubberband --enable-libsnappy --enable-libsrt --enable-libtesseract --enable-libtheora --enable-libvidstab --enable-libvmaf --enable-libvorbis --enable-libvpx --enable-libwebp --enable-libx264 --enable-libx265 --enable-libxml2 --enable-libxvid --enable-lzma --enable-libfontconfig --enable-libfreetype --enable-frei0r --enable-libass --enable-libopencore-amrnb --enable-libopencore-amrwb --enable-libopenjpeg --enable-libspeex --enable-libsoxr --enable-libzmq --enable-libzimg --disable-libjack --disable-indev=jack --enable-videotoolbox\n",
      "  libavutil      57. 28.100 / 57. 28.100\n",
      "  libavcodec     59. 37.100 / 59. 37.100\n",
      "  libavformat    59. 27.100 / 59. 27.100\n",
      "  libavdevice    59.  7.100 / 59.  7.100\n",
      "  libavfilter     8. 44.100 /  8. 44.100\n",
      "  libswscale      6.  7.100 /  6.  7.100\n",
      "  libswresample   4.  7.100 /  4.  7.100\n",
      "  libpostproc    56.  6.100 / 56.  6.100\n",
      "[mp3 @ 0x7fc8dc816bc0] Estimating duration from bitrate, this may be inaccurate\n",
      "Input #0, concat, from './JourneyToTheCentreOfTheEarth/project_file/audio/18857-1_txt/track_list.txt':\n",
      "  Duration: N/A, start: 0.000000, bitrate: 32 kb/s\n",
      "  Stream #0:0: Audio: mp3, 24000 Hz, mono, fltp, 32 kb/s\n",
      "Output #0, mp3, to './JourneyToTheCentreOfTheEarth/project_file/audio/18857-1_txt.mp3':\n",
      "  Metadata:\n",
      "    TSSE            : Lavf59.27.100\n",
      "  Stream #0:0: Audio: mp3, 24000 Hz, mono, fltp, 32 kb/s\n",
      "Stream mapping:\n",
      "  Stream #0:0 -> #0:0 (copy)\n",
      "Press [q] to stop, [?] for help\n",
      "[mp3 @ 0x7fc8daf04f80] Estimating duration from bitrate, this may be inaccurate\n",
      "[mp3 @ 0x7fc8dce04280] Estimating duration from bitrate, this may be inaccurate\n",
      "[mp3 @ 0x7fc8dcd04140] Estimating duration from bitrate, this may be inaccurate\n",
      "[mp3 @ 0x7fc8dce04080] Estimating duration from bitrate, this may be inaccurate\n",
      "[mp3 @ 0x7fc8daf04f80] Estimating duration from bitrate, this may be inaccurate\n",
      "[mp3 @ 0x7fc8dc904580] Estimating duration from bitrate, this may be inaccurate\n",
      "[mp3 @ 0x7fc8dcf04080] Estimating duration from bitrate, this may be inaccurate\n",
      "[mp3 @ 0x7fc8dca043c0] Estimating duration from bitrate, this may be inaccurate\n",
      "[mp3 @ 0x7fc8dc904480] Estimating duration from bitrate, this may be inaccurate\n",
      "[mp3 @ 0x7fc8dca0b140] Estimating duration from bitrate, this may be inaccurate\n",
      "    Last message repeated 1 times\n",
      "[mp3 @ 0x7fc8dc816a80] Estimating duration from bitrate, this may be inaccurate\n",
      "[mp3 @ 0x7fc8dc904540] Estimating duration from bitrate, this may be inaccurate\n",
      "[mp3 @ 0x7fc8dca0b140] Estimating duration from bitrate, this may be inaccurate\n",
      "[mp3 @ 0x7fc8dc816a80] Estimating duration from bitrate, this may be inaccurate\n",
      "[mp3 @ 0x7fc8dc9045c0] Estimating duration from bitrate, this may be inaccurate\n",
      "[mp3 @ 0x7fc8dc816a80] Estimating duration from bitrate, this may be inaccurate\n",
      "[mp3 @ 0x7fc8daf04f80] Estimating duration from bitrate, this may be inaccurate\n",
      "[mp3 @ 0x7fc8dc816a80] Estimating duration from bitrate, this may be inaccurate\n",
      "[mp3 @ 0x7fc8daf04f80] Estimating duration from bitrate, this may be inaccurate\n",
      "[mp3 @ 0x7fc8daf053c0] Estimating duration from bitrate, this may be inaccurate\n",
      "[mp3 @ 0x7fc8dca0b140] Estimating duration from bitrate, this may be inaccurate\n",
      "[mp3 @ 0x7fc8daf04f80] Estimating duration from bitrate, this may be inaccurate\n",
      "[mp3 @ 0x7fc8dca0b140] Estimating duration from bitrate, this may be inaccurate\n",
      "[mp3 @ 0x7fc8dcd04180] Estimating duration from bitrate, this may be inaccurate\n",
      "[mp3 @ 0x7fc8dc816dc0] Estimating duration from bitrate, this may be inaccurate\n",
      "[mp3 @ 0x7fc8dca0b140] Estimating duration from bitrate, this may be inaccurate\n",
      "[mp3 @ 0x7fc8daf04f80] Estimating duration from bitrate, this may be inaccurate\n",
      "[mp3 @ 0x7fc8dc9044c0] Estimating duration from bitrate, this may be inaccurate\n",
      "[mp3 @ 0x7fc8daf04f80] Estimating duration from bitrate, this may be inaccurate\n",
      "    Last message repeated 1 times\n",
      "[mp3 @ 0x7fc8dc816a80] Estimating duration from bitrate, this may be inaccurate\n",
      "[mp3 @ 0x7fc8dc904540] Estimating duration from bitrate, this may be inaccurate\n",
      "[mp3 @ 0x7fc8dc9044c0] Estimating duration from bitrate, this may be inaccurate\n",
      "[mp3 @ 0x7fc8dc816a80] Estimating duration from bitrate, this may be inaccurate\n",
      "[mp3 @ 0x7fc8dca0b140] Estimating duration from bitrate, this may be inaccurate\n",
      "    Last message repeated 1 times\n",
      "[mp3 @ 0x7fc8dc904540] Estimating duration from bitrate, this may be inaccurate\n",
      "[mp3 @ 0x7fc8dca0b140] Estimating duration from bitrate, this may be inaccurate\n",
      "[mp3 @ 0x7fc8dc9044c0] Estimating duration from bitrate, this may be inaccurate\n",
      "[mp3 @ 0x7fc8dca0b300] Estimating duration from bitrate, this may be inaccurate\n",
      "[mp3 @ 0x7fc8dc904640] Estimating duration from bitrate, this may be inaccurate\n",
      "[mp3 @ 0x7fc8daf04f80] Estimating duration from bitrate, this may be inaccurate\n",
      "    Last message repeated 1 times\n",
      "[mp3 @ 0x7fc8dc904500] Estimating duration from bitrate, this may be inaccurate\n",
      "[mp3 @ 0x7fc8dca0b140] Estimating duration from bitrate, this may be inaccurate\n",
      "[mp3 @ 0x7fc8dc816a80] Estimating duration from bitrate, this may be inaccurate\n",
      "    Last message repeated 1 times\n",
      "[mp3 @ 0x7fc8dc904480] Estimating duration from bitrate, this may be inaccurate\n",
      "[mp3 @ 0x7fc8daf05100] Estimating duration from bitrate, this may be inaccurate\n",
      "[mp3 @ 0x7fc8dcd04080] Estimating duration from bitrate, this may be inaccurate\n",
      "[mp3 @ 0x7fc8dcc04080] Estimating duration from bitrate, this may be inaccurate\n",
      "[mp3 @ 0x7fc8daf04f80] Estimating duration from bitrate, this may be inaccurate\n",
      "[mp3 @ 0x7fc8dc816a80] Estimating duration from bitrate, this may be inaccurate\n",
      "[mp3 @ 0x7fc8dc904500] Estimating duration from bitrate, this may be inaccurate\n",
      "[mp3 @ 0x7fc8dc904480] Estimating duration from bitrate, this may be inaccurate\n",
      "[mp3 @ 0x7fc8dca07f80] Estimating duration from bitrate, this may be inaccurate\n",
      "[mp3 @ 0x7fc8dc9044c0] Estimating duration from bitrate, this may be inaccurate\n",
      "[mp3 @ 0x7fc8dc816a80] Estimating duration from bitrate, this may be inaccurate\n",
      "[mp3 @ 0x7fc8dca0b140] Estimating duration from bitrate, this may be inaccurate\n",
      "[mp3 @ 0x7fc8daf04f80] Estimating duration from bitrate, this may be inaccurate\n",
      "[mp3 @ 0x7fc8dc816a80] Estimating duration from bitrate, this may be inaccurate\n",
      "[mp3 @ 0x7fc8dc9044c0] Estimating duration from bitrate, this may be inaccurate\n",
      "[mp3 @ 0x7fc8dc816d00] Estimating duration from bitrate, this may be inaccurate\n",
      "[mp3 @ 0x7fc8dc8178c0] Estimating duration from bitrate, this may be inaccurate\n",
      "[mp3 @ 0x7fc8dc904500] Estimating duration from bitrate, this may be inaccurate\n",
      "[mp3 @ 0x7fc8daf05000] Estimating duration from bitrate, this may be inaccurate\n",
      "[mp3 @ 0x7fc8dc816a80] Estimating duration from bitrate, this may be inaccurate\n",
      "    Last message repeated 1 times\n",
      "[mp3 @ 0x7fc8dc904500] Estimating duration from bitrate, this may be inaccurate\n",
      "[mp3 @ 0x7fc8dca0b140] Estimating duration from bitrate, this may be inaccurate\n",
      "[mp3 @ 0x7fc8dc816b40] Estimating duration from bitrate, this may be inaccurate\n",
      "[mp3 @ 0x7fc8dc904780] Estimating duration from bitrate, this may be inaccurate\n",
      "[mp3 @ 0x7fc8dca07f80] Estimating duration from bitrate, this may be inaccurate\n",
      "[mp3 @ 0x7fc8daf04f80] Estimating duration from bitrate, this may be inaccurate\n",
      "[mp3 @ 0x7fc8dcd04080] Estimating duration from bitrate, this may be inaccurate\n",
      "[mp3 @ 0x7fc8daf04f80] Estimating duration from bitrate, this may be inaccurate\n",
      "[mp3 @ 0x7fc8dca07f80] Estimating duration from bitrate, this may be inaccurate\n",
      "    Last message repeated 1 times\n",
      "[mp3 @ 0x7fc8dc9046c0] Estimating duration from bitrate, this may be inaccurate\n",
      "[mp3 @ 0x7fc8dce04240] Estimating duration from bitrate, this may be inaccurate\n",
      "[mp3 @ 0x7fc8dc9044c0] Estimating duration from bitrate, this may be inaccurate\n",
      "[mp3 @ 0x7fc8dcd04080] Estimating duration from bitrate, this may be inaccurate\n",
      "[mp3 @ 0x7fc8dca07f80] Estimating duration from bitrate, this may be inaccurate\n",
      "[mp3 @ 0x7fc8dc816dc0] Estimating duration from bitrate, this may be inaccurate\n",
      "[mp3 @ 0x7fc8dc816bc0] Estimating duration from bitrate, this may be inaccurate\n",
      "[mp3 @ 0x7fc8dc816b80] Estimating duration from bitrate, this may be inaccurate\n",
      "[mp3 @ 0x7fc8dc904480] Estimating duration from bitrate, this may be inaccurate\n",
      "[mp3 @ 0x7fc8dca043c0] Estimating duration from bitrate, this may be inaccurate\n",
      "    Last message repeated 1 times\n",
      "[mp3 @ 0x7fc8dc904500] Estimating duration from bitrate, this may be inaccurate\n",
      "[mp3 @ 0x7fc8daf04f80] Estimating duration from bitrate, this may be inaccurate\n"
     ]
    },
    {
     "name": "stderr",
     "output_type": "stream",
     "text": [
      "    Last message repeated 1 times\n",
      "[mp3 @ 0x7fc8dc904480] Estimating duration from bitrate, this may be inaccurate\n",
      "    Last message repeated 1 times\n",
      "[mp3 @ 0x7fc8dc816a80] Estimating duration from bitrate, this may be inaccurate\n",
      "[mp3 @ 0x7fc8daf04f80] Estimating duration from bitrate, this may be inaccurate\n",
      "[mp3 @ 0x7fc8dc816a80] Estimating duration from bitrate, this may be inaccurate\n",
      "[mp3 @ 0x7fc8dc816ec0] Estimating duration from bitrate, this may be inaccurate\n",
      "[mp3 @ 0x7fc8dca043c0] Estimating duration from bitrate, this may be inaccurate\n",
      "[mp3 @ 0x7fc8dcc04080] Estimating duration from bitrate, this may be inaccurate\n",
      "[mp3 @ 0x7fc8daf04f80] Estimating duration from bitrate, this may be inaccurate\n",
      "    Last message repeated 1 times\n",
      "[mp3 @ 0x7fc8dc816a80] Estimating duration from bitrate, this may be inaccurate\n",
      "[mp3 @ 0x7fc8daf05000] Estimating duration from bitrate, this may be inaccurate\n",
      "[mp3 @ 0x7fc8dc816a80] Estimating duration from bitrate, this may be inaccurate\n",
      "    Last message repeated 1 times\n",
      "[mp3 @ 0x7fc8dc816f40] Estimating duration from bitrate, this may be inaccurate\n",
      "[mp3 @ 0x7fc8dca043c0] Estimating duration from bitrate, this may be inaccurate\n",
      "[mp3 @ 0x7fc8dc816d00] Estimating duration from bitrate, this may be inaccurate\n",
      "[mp3 @ 0x7fc8dca04400] Estimating duration from bitrate, this may be inaccurate\n",
      "[mp3 @ 0x7fc8daf04f80] Estimating duration from bitrate, this may be inaccurate\n",
      "[mp3 @ 0x7fc8dc904480] Estimating duration from bitrate, this may be inaccurate\n",
      "[mp3 @ 0x7fc8dc816a80] Estimating duration from bitrate, this may be inaccurate\n",
      "[mp3 @ 0x7fc8daf05100] Estimating duration from bitrate, this may be inaccurate\n",
      "[mp3 @ 0x7fc8daf050c0] Estimating duration from bitrate, this may be inaccurate\n",
      "[mp3 @ 0x7fc8daf05040] Estimating duration from bitrate, this may be inaccurate\n",
      "[mp3 @ 0x7fc8dc816a80] Estimating duration from bitrate, this may be inaccurate\n",
      "    Last message repeated 1 times\n",
      "[mp3 @ 0x7fc8dc9044c0] Estimating duration from bitrate, this may be inaccurate\n",
      "[mp3 @ 0x7fc8dc816a80] Estimating duration from bitrate, this may be inaccurate\n",
      "[mp3 @ 0x7fc8dca043c0] Estimating duration from bitrate, this may be inaccurate\n",
      "[mp3 @ 0x7fc8dcd04200] Estimating duration from bitrate, this may be inaccurate\n",
      "[mp3 @ 0x7fc8dce04080] Estimating duration from bitrate, this may be inaccurate\n",
      "[mp3 @ 0x7fc8dc816b80] Estimating duration from bitrate, this may be inaccurate\n",
      "[mp3 @ 0x7fc8dc816b40] Estimating duration from bitrate, this may be inaccurate\n",
      "[mp3 @ 0x7fc8dc904500] Estimating duration from bitrate, this may be inaccurate\n",
      "[mp3 @ 0x7fc8daf04f80] Estimating duration from bitrate, this may be inaccurate\n",
      "[mp3 @ 0x7fc8dc816a80] Estimating duration from bitrate, this may be inaccurate\n",
      "[mp3 @ 0x7fc8dca0b140] Estimating duration from bitrate, this may be inaccurate\n",
      "[mp3 @ 0x7fc8daf04f80] Estimating duration from bitrate, this may be inaccurate\n",
      "[mp3 @ 0x7fc8dc816a80] Estimating duration from bitrate, this may be inaccurate\n",
      "    Last message repeated 1 times\n",
      "[mp3 @ 0x7fc8dc904e00] Estimating duration from bitrate, this may be inaccurate\n",
      "[mp3 @ 0x7fc8dca0b140] Estimating duration from bitrate, this may be inaccurate\n",
      "    Last message repeated 1 times\n",
      "[mp3 @ 0x7fc8dc904480] Estimating duration from bitrate, this may be inaccurate\n",
      "[mp3 @ 0x7fc8daf04f80] Estimating duration from bitrate, this may be inaccurate\n",
      "[mp3 @ 0x7fc8dce04080] Estimating duration from bitrate, this may be inaccurate\n",
      "[mp3 @ 0x7fc8dca0b2c0] Estimating duration from bitrate, this may be inaccurate\n",
      "[mp3 @ 0x7fc8dc816a80] Estimating duration from bitrate, this may be inaccurate\n",
      "[mp3 @ 0x7fc8dc904480] Estimating duration from bitrate, this may be inaccurate\n",
      "[mp3 @ 0x7fc8daf04f80] Estimating duration from bitrate, this may be inaccurate\n",
      "[mp3 @ 0x7fc8dca043c0] Estimating duration from bitrate, this may be inaccurate\n",
      "[mp3 @ 0x7fc8daf05000] Estimating duration from bitrate, this may be inaccurate\n",
      "[mp3 @ 0x7fc8dc904500] Estimating duration from bitrate, this may be inaccurate\n",
      "[mp3 @ 0x7fc8dc9044c0] Estimating duration from bitrate, this may be inaccurate\n",
      "[mp3 @ 0x7fc8daf04f80] Estimating duration from bitrate, this may be inaccurate\n",
      "[mp3 @ 0x7fc8dca043c0] Estimating duration from bitrate, this may be inaccurate\n",
      "    Last message repeated 1 times\n",
      "[mp3 @ 0x7fc8dca04800] Estimating duration from bitrate, this may be inaccurate\n",
      "[mp3 @ 0x7fc8daf04f80] Estimating duration from bitrate, this may be inaccurate\n",
      "[mp3 @ 0x7fc8dca04540] Estimating duration from bitrate, this may be inaccurate\n",
      "[mp3 @ 0x7fc8daf04f80] Estimating duration from bitrate, this may be inaccurate\n",
      "[mp3 @ 0x7fc8dca043c0] Estimating duration from bitrate, this may be inaccurate\n",
      "[mp3 @ 0x7fc8dc904540] Estimating duration from bitrate, this may be inaccurate\n",
      "[mp3 @ 0x7fc8dcf043c0] Estimating duration from bitrate, this may be inaccurate\n",
      "[mp3 @ 0x7fc8dc816dc0] Estimating duration from bitrate, this may be inaccurate\n",
      "[mp3 @ 0x7fc8daf04f80] Estimating duration from bitrate, this may be inaccurate\n",
      "[mp3 @ 0x7fc8dc904480] Estimating duration from bitrate, this may be inaccurate\n",
      "[mp3 @ 0x7fc8dca043c0] Estimating duration from bitrate, this may be inaccurate\n",
      "    Last message repeated 1 times\n",
      "[mp3 @ 0x7fc8daf05100] Estimating duration from bitrate, this may be inaccurate\n",
      "[mp3 @ 0x7fc8dca043c0] Estimating duration from bitrate, this may be inaccurate\n",
      "    Last message repeated 1 times\n",
      "[mp3 @ 0x7fc8dcd04080] Estimating duration from bitrate, this may be inaccurate\n",
      "[mp3 @ 0x7fc8dc904600] Estimating duration from bitrate, this may be inaccurate\n",
      "[mp3 @ 0x7fc8daf04f80] Estimating duration from bitrate, this may be inaccurate\n",
      "[mp3 @ 0x7fc8dc816a80] Estimating duration from bitrate, this may be inaccurate\n",
      "[mp3 @ 0x7fc8daf04fc0] Estimating duration from bitrate, this may be inaccurate\n",
      "[mp3 @ 0x7fc8dca043c0] Estimating duration from bitrate, this may be inaccurate\n",
      "    Last message repeated 1 times\n",
      "[mp3 @ 0x7fc8daf04fc0] Estimating duration from bitrate, this may be inaccurate\n",
      "[mp3 @ 0x7fc8dc904700] Estimating duration from bitrate, this may be inaccurate\n",
      "[mp3 @ 0x7fc8dc816a80] Estimating duration from bitrate, this may be inaccurate\n",
      "    Last message repeated 2 times\n",
      "[mp3 @ 0x7fc8dca043c0] Estimating duration from bitrate, this may be inaccurate\n",
      "[mp3 @ 0x7fc8dc816d00] Estimating duration from bitrate, this may be inaccurate\n",
      "[mp3 @ 0x7fc8daf04f80] Estimating duration from bitrate, this may be inaccurate\n",
      "    Last message repeated 1 times\n",
      "[mp3 @ 0x7fc8daf05440] Estimating duration from bitrate, this may be inaccurate\n",
      "[mp3 @ 0x7fc8dca043c0] Estimating duration from bitrate, this may be inaccurate\n",
      "[mp3 @ 0x7fc8dc904500] Estimating duration from bitrate, this may be inaccurate\n",
      "[mp3 @ 0x7fc8dca043c0] Estimating duration from bitrate, this may be inaccurate\n",
      "[mp3 @ 0x7fc8dc816a80] Estimating duration from bitrate, this may be inaccurate\n",
      "    Last message repeated 1 times\n",
      "[mp3 @ 0x7fc8dcd041c0] Estimating duration from bitrate, this may be inaccurate\n",
      "[mp3 @ 0x7fc8dc816dc0] Estimating duration from bitrate, this may be inaccurate\n",
      "[mp3 @ 0x7fc8dca043c0] Estimating duration from bitrate, this may be inaccurate\n",
      "[mp3 @ 0x7fc8dc904480] Estimating duration from bitrate, this may be inaccurate\n",
      "    Last message repeated 2 times\n",
      "[mp3 @ 0x7fc8dcf04080] Estimating duration from bitrate, this may be inaccurate\n",
      "[mp3 @ 0x7fc8daf04f80] Estimating duration from bitrate, this may be inaccurate\n",
      "    Last message repeated 1 times\n",
      "[mp3 @ 0x7fc8dca043c0] Estimating duration from bitrate, this may be inaccurate\n",
      "[mp3 @ 0x7fc8dc904740] Estimating duration from bitrate, this may be inaccurate\n",
      "[mp3 @ 0x7fc8dca043c0] Estimating duration from bitrate, this may be inaccurate\n",
      "[mp3 @ 0x7fc8daf04f80] Estimating duration from bitrate, this may be inaccurate\n",
      "    Last message repeated 1 times\n",
      "[mp3 @ 0x7fc8dc816a80] Estimating duration from bitrate, this may be inaccurate\n",
      "[mp3 @ 0x7fc8dc904680] Estimating duration from bitrate, this may be inaccurate\n",
      "[mp3 @ 0x7fc8dc904600] Estimating duration from bitrate, this may be inaccurate\n",
      "[mp3 @ 0x7fc8dcd04080] Estimating duration from bitrate, this may be inaccurate\n",
      "[mp3 @ 0x7fc8dca07f80] Estimating duration from bitrate, this may be inaccurate\n",
      "[mp3 @ 0x7fc8dc816c40] Estimating duration from bitrate, this may be inaccurate\n",
      "[mp3 @ 0x7fc8dc816c00] Estimating duration from bitrate, this may be inaccurate\n",
      "[mp3 @ 0x7fc8dc816bc0] Estimating duration from bitrate, this may be inaccurate\n",
      "[mp3 @ 0x7fc8daf04f80] Estimating duration from bitrate, this may be inaccurate\n",
      "[mp3 @ 0x7fc8dc816a80] Estimating duration from bitrate, this may be inaccurate\n",
      "[mp3 @ 0x7fc8dc816dc0] Estimating duration from bitrate, this may be inaccurate\n",
      "[mp3 @ 0x7fc8dcc04080] Estimating duration from bitrate, this may be inaccurate\n",
      "[mp3 @ 0x7fc8dc816dc0] Estimating duration from bitrate, this may be inaccurate\n",
      "[mp3 @ 0x7fc8dcc04080] Estimating duration from bitrate, this may be inaccurate\n",
      "[mp3 @ 0x7fc8dca07f80] Estimating duration from bitrate, this may be inaccurate\n",
      "[mp3 @ 0x7fc8daf05100] Estimating duration from bitrate, this may be inaccurate\n",
      "[mp3 @ 0x7fc8dca0b140] Estimating duration from bitrate, this may be inaccurate\n",
      "[mp3 @ 0x7fc8dc904480] Estimating duration from bitrate, this may be inaccurate\n",
      "[mp3 @ 0x7fc8dc816a80] Estimating duration from bitrate, this may be inaccurate\n"
     ]
    },
    {
     "name": "stderr",
     "output_type": "stream",
     "text": [
      "[mp3 @ 0x7fc8dc904640] Estimating duration from bitrate, this may be inaccurate\n",
      "[mp3 @ 0x7fc8dce04080] Estimating duration from bitrate, this may be inaccurate\n",
      "[mp3 @ 0x7fc8dcc04080] Estimating duration from bitrate, this may be inaccurate\n",
      "[mp3 @ 0x7fc8dc904600] Estimating duration from bitrate, this may be inaccurate\n",
      "[mp3 @ 0x7fc8dcf04200] Estimating duration from bitrate, this may be inaccurate\n",
      "[mp3 @ 0x7fc8dca04400] Estimating duration from bitrate, this may be inaccurate\n",
      "[mp3 @ 0x7fc8dcd04300] Estimating duration from bitrate, this may be inaccurate\n",
      "[mp3 @ 0x7fc8dc9044c0] Estimating duration from bitrate, this may be inaccurate\n",
      "[mp3 @ 0x7fc8dc904480] Estimating duration from bitrate, this may be inaccurate\n",
      "    Last message repeated 1 times\n",
      "[mp3 @ 0x7fc8daf04fc0] Estimating duration from bitrate, this may be inaccurate\n",
      "[mp3 @ 0x7fc8dc904480] Estimating duration from bitrate, this may be inaccurate\n",
      "[mp3 @ 0x7fc8dc816b00] Estimating duration from bitrate, this may be inaccurate\n",
      "[mp3 @ 0x7fc8daf04fc0] Estimating duration from bitrate, this may be inaccurate\n",
      "[mp3 @ 0x7fc8dc904500] Estimating duration from bitrate, this may be inaccurate\n",
      "[mp3 @ 0x7fc8dc816a80] Estimating duration from bitrate, this may be inaccurate\n",
      "[mp3 @ 0x7fc8daf04f80] Estimating duration from bitrate, this may be inaccurate\n",
      "[mp3 @ 0x7fc8dc816a80] Estimating duration from bitrate, this may be inaccurate\n",
      "[mp3 @ 0x7fc8dca0b140] Estimating duration from bitrate, this may be inaccurate\n",
      "[mp3 @ 0x7fc8dc9044c0] Estimating duration from bitrate, this may be inaccurate\n",
      "[mp3 @ 0x7fc8dca0b140] Estimating duration from bitrate, this may be inaccurate\n",
      "    Last message repeated 1 times\n",
      "[mp3 @ 0x7fc8daf04f80] Estimating duration from bitrate, this may be inaccurate\n",
      "[mp3 @ 0x7fc8dc816a80] Estimating duration from bitrate, this may be inaccurate\n",
      "[mp3 @ 0x7fc8dc9044c0] Estimating duration from bitrate, this may be inaccurate\n",
      "[mp3 @ 0x7fc8dc816b40] Estimating duration from bitrate, this may be inaccurate\n",
      "[mp3 @ 0x7fc8dca0b140] Estimating duration from bitrate, this may be inaccurate\n",
      "[mp3 @ 0x7fc8daf05140] Estimating duration from bitrate, this may be inaccurate\n",
      "[mp3 @ 0x7fc8dc816b00] Estimating duration from bitrate, this may be inaccurate\n",
      "[mp3 @ 0x7fc8dc816f40] Estimating duration from bitrate, this may be inaccurate\n",
      "[mp3 @ 0x7fc8daf04f80] Estimating duration from bitrate, this may be inaccurate\n",
      "    Last message repeated 1 times\n",
      "[mp3 @ 0x7fc8dcd04080] Estimating duration from bitrate, this may be inaccurate\n",
      "[mp3 @ 0x7fc8dc816a80] Estimating duration from bitrate, this may be inaccurate\n",
      "    Last message repeated 2 times\n",
      "[mp3 @ 0x7fc8dc904480] Estimating duration from bitrate, this may be inaccurate\n",
      "[mp3 @ 0x7fc8dca0b140] Estimating duration from bitrate, this may be inaccurate\n",
      "    Last message repeated 1 times\n",
      "[mp3 @ 0x7fc8dc816a80] Estimating duration from bitrate, this may be inaccurate\n",
      "[mp3 @ 0x7fc8daf04f80] Estimating duration from bitrate, this may be inaccurate\n",
      "[mp3 @ 0x7fc8dc816d80] Estimating duration from bitrate, this may be inaccurate\n",
      "[mp3 @ 0x7fc8dc816c40] Estimating duration from bitrate, this may be inaccurate\n",
      "[mp3 @ 0x7fc8dca0b400] Estimating duration from bitrate, this may be inaccurate\n",
      "[mp3 @ 0x7fc8dc904680] Estimating duration from bitrate, this may be inaccurate\n",
      "[mp3 @ 0x7fc8dc904480] Estimating duration from bitrate, this may be inaccurate\n",
      "[mp3 @ 0x7fc8dc816a80] Estimating duration from bitrate, this may be inaccurate\n",
      "[mp3 @ 0x7fc8dca0b400] Estimating duration from bitrate, this may be inaccurate\n",
      "[mp3 @ 0x7fc8dcc04080] Estimating duration from bitrate, this may be inaccurate\n",
      "[mp3 @ 0x7fc8dc816a80] Estimating duration from bitrate, this may be inaccurate\n",
      "[mp3 @ 0x7fc8daf04f80] Estimating duration from bitrate, this may be inaccurate\n",
      "    Last message repeated 2 times\n",
      "[mp3 @ 0x7fc8dc904500] Estimating duration from bitrate, this may be inaccurate\n",
      "[mp3 @ 0x7fc8dc816a80] Estimating duration from bitrate, this may be inaccurate\n",
      "[mp3 @ 0x7fc8daf04f80] Estimating duration from bitrate, this may be inaccurate\n",
      "    Last message repeated 1 times\n",
      "[mp3 @ 0x7fc8dca0b140] Estimating duration from bitrate, this may be inaccurate\n",
      "[mp3 @ 0x7fc8dc904500] Estimating duration from bitrate, this may be inaccurate\n",
      "[mp3 @ 0x7fc8daf04f80] Estimating duration from bitrate, this may be inaccurate\n",
      "[mp3 @ 0x7fc8dc9044c0] Estimating duration from bitrate, this may be inaccurate\n",
      "[mp3 @ 0x7fc8daf04f80] Estimating duration from bitrate, this may be inaccurate\n",
      "[mp3 @ 0x7fc8dca0b180] Estimating duration from bitrate, this may be inaccurate\n",
      "    Last message repeated 1 times\n",
      "[mp3 @ 0x7fc8dc904480] Estimating duration from bitrate, this may be inaccurate\n",
      "[mp3 @ 0x7fc8dcc04080] Estimating duration from bitrate, this may be inaccurate\n",
      "[mp3 @ 0x7fc8dc904640] Estimating duration from bitrate, this may be inaccurate\n",
      "[mp3 @ 0x7fc8daf04f80] Estimating duration from bitrate, this may be inaccurate\n",
      "[mp3 @ 0x7fc8daf05440] Estimating duration from bitrate, this may be inaccurate\n",
      "[mp3 @ 0x7fc8dc816ac0] Estimating duration from bitrate, this may be inaccurate\n",
      "[mp3 @ 0x7fc8dcf04080] Estimating duration from bitrate, this may be inaccurate\n",
      "[mp3 @ 0x7fc8dca07f80] Estimating duration from bitrate, this may be inaccurate\n",
      "[mp3 @ 0x7fc8daf04fc0] Estimating duration from bitrate, this may be inaccurate\n",
      "[mp3 @ 0x7fc8dca08180] Estimating duration from bitrate, this may be inaccurate\n",
      "[mp3 @ 0x7fc8dc904480] Estimating duration from bitrate, this may be inaccurate\n",
      "[mp3 @ 0x7fc8daf04f80] Estimating duration from bitrate, this may be inaccurate\n",
      "[mp3 @ 0x7fc8dc816a80] Estimating duration from bitrate, this may be inaccurate\n",
      "[mp3 @ 0x7fc8dca07f80] Estimating duration from bitrate, this may be inaccurate\n",
      "[mp3 @ 0x7fc8dcd04080] Estimating duration from bitrate, this may be inaccurate\n",
      "[mp3 @ 0x7fc8daf04f80] Estimating duration from bitrate, this may be inaccurate\n",
      "    Last message repeated 1 times\n",
      "[mp3 @ 0x7fc8dca043c0] Estimating duration from bitrate, this may be inaccurate\n",
      "    Last message repeated 1 times\n",
      "[mp3 @ 0x7fc8dc904540] Estimating duration from bitrate, this may be inaccurate\n",
      "[mp3 @ 0x7fc8daf05080] Estimating duration from bitrate, this may be inaccurate\n",
      "[mp3 @ 0x7fc8dc816a80] Estimating duration from bitrate, this may be inaccurate\n",
      "[mp3 @ 0x7fc8dcd04080] Estimating duration from bitrate, this may be inaccurate\n",
      "[mp3 @ 0x7fc8dc904500] Estimating duration from bitrate, this may be inaccurate\n",
      "[mp3 @ 0x7fc8dca07f80] Estimating duration from bitrate, this may be inaccurate\n",
      "[mp3 @ 0x7fc8dc816a80] Estimating duration from bitrate, this may be inaccurate\n",
      "[mp3 @ 0x7fc8daf04f80] Estimating duration from bitrate, this may be inaccurate\n",
      "    Last message repeated 1 times\n",
      "[mp3 @ 0x7fc8dc816a80] Estimating duration from bitrate, this may be inaccurate\n",
      "[mp3 @ 0x7fc8dca07f80] Estimating duration from bitrate, this may be inaccurate\n",
      "[mp3 @ 0x7fc8daf04f80] Estimating duration from bitrate, this may be inaccurate\n",
      "[mp3 @ 0x7fc8dca043c0] Estimating duration from bitrate, this may be inaccurate\n",
      "[mp3 @ 0x7fc8dc904600] Estimating duration from bitrate, this may be inaccurate\n",
      "[mp3 @ 0x7fc8dc9045c0] Estimating duration from bitrate, this may be inaccurate\n",
      "[mp3 @ 0x7fc8dc816c80] Estimating duration from bitrate, this may be inaccurate\n",
      "[mp3 @ 0x7fc8dc816a80] Estimating duration from bitrate, this may be inaccurate\n",
      "[mp3 @ 0x7fc8dca07f80] Estimating duration from bitrate, this may be inaccurate\n",
      "[mp3 @ 0x7fc8dc9047c0] Estimating duration from bitrate, this may be inaccurate\n",
      "[mp3 @ 0x7fc8dc816a80] Estimating duration from bitrate, this may be inaccurate\n",
      "[mp3 @ 0x7fc8dca07f80] Estimating duration from bitrate, this may be inaccurate\n",
      "[mp3 @ 0x7fc8dc816a80] Estimating duration from bitrate, this may be inaccurate\n",
      "[mp3 @ 0x7fc8daf04f80] Estimating duration from bitrate, this may be inaccurate\n",
      "[mp3 @ 0x7fc8dce042c0] Estimating duration from bitrate, this may be inaccurate\n",
      "[mp3 @ 0x7fc8dc816a80] Estimating duration from bitrate, this may be inaccurate\n",
      "    Last message repeated 1 times\n",
      "[mp3 @ 0x7fc8daf05140] Estimating duration from bitrate, this may be inaccurate\n",
      "[mp3 @ 0x7fc8dca07f80] Estimating duration from bitrate, this may be inaccurate\n",
      "[mp3 @ 0x7fc8dc816c40] Estimating duration from bitrate, this may be inaccurate\n",
      "[mp3 @ 0x7fc8dc816c00] Estimating duration from bitrate, this may be inaccurate\n",
      "[mp3 @ 0x7fc8dc816bc0] Estimating duration from bitrate, this may be inaccurate\n"
     ]
    },
    {
     "name": "stderr",
     "output_type": "stream",
     "text": [
      "[mp3 @ 0x7fc8daf04f80] Estimating duration from bitrate, this may be inaccurate\n",
      "[mp3 @ 0x7fc8dca08140] Estimating duration from bitrate, this may be inaccurate\n",
      "[mp3 @ 0x7fc8daf04f80] Estimating duration from bitrate, this may be inaccurate\n",
      "[mp3 @ 0x7fc8dc904540] Estimating duration from bitrate, this may be inaccurate\n",
      "[mp3 @ 0x7fc8daf04f80] Estimating duration from bitrate, this may be inaccurate\n",
      "[mp3 @ 0x7fc8dca07f80] Estimating duration from bitrate, this may be inaccurate\n",
      "[mp3 @ 0x7fc8dc816a80] Estimating duration from bitrate, this may be inaccurate\n",
      "[mp3 @ 0x7fc8dca07f80] Estimating duration from bitrate, this may be inaccurate\n",
      "[mp3 @ 0x7fc8dc9044c0] Estimating duration from bitrate, this may be inaccurate\n",
      "[mp3 @ 0x7fc8dca07f80] Estimating duration from bitrate, this may be inaccurate\n",
      "    Last message repeated 1 times\n",
      "[mp3 @ 0x7fc8dc904500] Estimating duration from bitrate, this may be inaccurate\n",
      "[mp3 @ 0x7fc8dca043c0] Estimating duration from bitrate, this may be inaccurate\n",
      "    Last message repeated 2 times\n",
      "[mp3 @ 0x7fc8dcc04080] Estimating duration from bitrate, this may be inaccurate\n",
      "[mp3 @ 0x7fc8dc816a80] Estimating duration from bitrate, this may be inaccurate\n",
      "[mp3 @ 0x7fc8dc9044c0] Estimating duration from bitrate, this may be inaccurate\n",
      "[mp3 @ 0x7fc8dca07f80] Estimating duration from bitrate, this may be inaccurate\n",
      "[mp3 @ 0x7fc8dc816c80] Estimating duration from bitrate, this may be inaccurate\n",
      "[mp3 @ 0x7fc8dc904d00] Estimating duration from bitrate, this may be inaccurate\n",
      "[mp3 @ 0x7fc8dc9046c0] Estimating duration from bitrate, this may be inaccurate\n",
      "[mp3 @ 0x7fc8dc816a80] Estimating duration from bitrate, this may be inaccurate\n",
      "[mp3 @ 0x7fc8dc904500] Estimating duration from bitrate, this may be inaccurate\n",
      "[mp3 @ 0x7fc8daf04f80] Estimating duration from bitrate, this may be inaccurate\n",
      "[mp3 @ 0x7fc8dc816a80] Estimating duration from bitrate, this may be inaccurate\n",
      "    Last message repeated 2 times\n",
      "[mp3 @ 0x7fc8dc904540] Estimating duration from bitrate, this may be inaccurate\n",
      "[mp3 @ 0x7fc8dc904480] Estimating duration from bitrate, this may be inaccurate\n",
      "[mp3 @ 0x7fc8dc816a80] Estimating duration from bitrate, this may be inaccurate\n",
      "[mp3 @ 0x7fc8dc9044c0] Estimating duration from bitrate, this may be inaccurate\n",
      "[mp3 @ 0x7fc8daf04f80] Estimating duration from bitrate, this may be inaccurate\n",
      "[mp3 @ 0x7fc8dca043c0] Estimating duration from bitrate, this may be inaccurate\n",
      "[mp3 @ 0x7fc8daf04fc0] Estimating duration from bitrate, this may be inaccurate\n",
      "[mp3 @ 0x7fc8daf04f80] Estimating duration from bitrate, this may be inaccurate\n",
      "[mp3 @ 0x7fc8dca07f80] Estimating duration from bitrate, this may be inaccurate\n",
      "[mp3 @ 0x7fc8dc904500] Estimating duration from bitrate, this may be inaccurate\n",
      "[mp3 @ 0x7fc8dcc04080] Estimating duration from bitrate, this may be inaccurate\n",
      "[mp3 @ 0x7fc8dc904480] Estimating duration from bitrate, this may be inaccurate\n",
      "[mp3 @ 0x7fc8dc816d80] Estimating duration from bitrate, this may be inaccurate\n",
      "[mp3 @ 0x7fc8dca043c0] Estimating duration from bitrate, this may be inaccurate\n",
      "[mp3 @ 0x7fc8dc904500] Estimating duration from bitrate, this may be inaccurate\n",
      "[mp3 @ 0x7fc8dc9044c0] Estimating duration from bitrate, this may be inaccurate\n",
      "[mp3 @ 0x7fc8dca08100] Estimating duration from bitrate, this may be inaccurate\n",
      "[mp3 @ 0x7fc8dce04080] Estimating duration from bitrate, this may be inaccurate\n",
      "[mp3 @ 0x7fc8dc816a80] Estimating duration from bitrate, this may be inaccurate\n",
      "[mp3 @ 0x7fc8daf04f80] Estimating duration from bitrate, this may be inaccurate\n",
      "[mp3 @ 0x7fc8dca07f80] Estimating duration from bitrate, this may be inaccurate\n",
      "[mp3 @ 0x7fc8dc9044c0] Estimating duration from bitrate, this may be inaccurate\n",
      "[mp3 @ 0x7fc8dca043c0] Estimating duration from bitrate, this may be inaccurate\n",
      "[mp3 @ 0x7fc8daf04f80] Estimating duration from bitrate, this may be inaccurate\n",
      "[mp3 @ 0x7fc8dca07f80] Estimating duration from bitrate, this may be inaccurate\n",
      "[mp3 @ 0x7fc8dc816dc0] Estimating duration from bitrate, this may be inaccurate\n",
      "[mp3 @ 0x7fc8dc904600] Estimating duration from bitrate, this may be inaccurate\n",
      "[mp3 @ 0x7fc8dc904a40] Estimating duration from bitrate, this may be inaccurate\n",
      "[mp3 @ 0x7fc8dc816c40] Estimating duration from bitrate, this may be inaccurate\n",
      "[mp3 @ 0x7fc8dc904480] Estimating duration from bitrate, this may be inaccurate\n",
      "[mp3 @ 0x7fc8dc816a80] Estimating duration from bitrate, this may be inaccurate\n",
      "[mp3 @ 0x7fc8dc9044c0] Estimating duration from bitrate, this may be inaccurate\n",
      "[mp3 @ 0x7fc8dc816c00] Estimating duration from bitrate, this may be inaccurate\n",
      "[mp3 @ 0x7fc8daf04fc0] Estimating duration from bitrate, this may be inaccurate\n",
      "[mp3 @ 0x7fc8dc816a80] Estimating duration from bitrate, this may be inaccurate\n",
      "[mp3 @ 0x7fc8daf04f80] Estimating duration from bitrate, this may be inaccurate\n",
      "[mp3 @ 0x7fc8dc816a80] Estimating duration from bitrate, this may be inaccurate\n",
      "    Last message repeated 1 times\n",
      "[mp3 @ 0x7fc8daf04f80] Estimating duration from bitrate, this may be inaccurate\n",
      "[mp3 @ 0x7fc8dc816a80] Estimating duration from bitrate, this may be inaccurate\n",
      "[mp3 @ 0x7fc8dc904480] Estimating duration from bitrate, this may be inaccurate\n",
      "    Last message repeated 1 times\n",
      "[mp3 @ 0x7fc8daf051c0] Estimating duration from bitrate, this may be inaccurate\n",
      "[mp3 @ 0x7fc8daf04f80] Estimating duration from bitrate, this may be inaccurate\n",
      "[mp3 @ 0x7fc8dc816a80] Estimating duration from bitrate, this may be inaccurate\n",
      "[mp3 @ 0x7fc8daf04f80] Estimating duration from bitrate, this may be inaccurate\n",
      "[mp3 @ 0x7fc8dc816a80] Estimating duration from bitrate, this may be inaccurate\n",
      "[mp3 @ 0x7fc8dce040c0] Estimating duration from bitrate, this may be inaccurate\n",
      "[mp3 @ 0x7fc8dc904500] Estimating duration from bitrate, this may be inaccurate\n",
      "[mp3 @ 0x7fc8daf04f80] Estimating duration from bitrate, this may be inaccurate\n",
      "    Last message repeated 1 times\n",
      "[mp3 @ 0x7fc8dca07f80] Estimating duration from bitrate, this may be inaccurate\n",
      "    Last message repeated 1 times\n",
      "[mp3 @ 0x7fc8dc816a80] Estimating duration from bitrate, this may be inaccurate\n",
      "    Last message repeated 2 times\n",
      "[mp3 @ 0x7fc8daf04f80] Estimating duration from bitrate, this may be inaccurate\n",
      "[mp3 @ 0x7fc8dca07f80] Estimating duration from bitrate, this may be inaccurate\n",
      "[mp3 @ 0x7fc8dca04580] Estimating duration from bitrate, this may be inaccurate\n",
      "[mp3 @ 0x7fc8dc816a80] Estimating duration from bitrate, this may be inaccurate\n",
      "[mp3 @ 0x7fc8dc904480] Estimating duration from bitrate, this may be inaccurate\n",
      "[mp3 @ 0x7fc8dca043c0] Estimating duration from bitrate, this may be inaccurate\n",
      "    Last message repeated 1 times\n",
      "[mp3 @ 0x7fc8dc904500] Estimating duration from bitrate, this may be inaccurate\n",
      "[mp3 @ 0x7fc8dca043c0] Estimating duration from bitrate, this may be inaccurate\n",
      "    Last message repeated 1 times\n",
      "[mp3 @ 0x7fc8dc904480] Estimating duration from bitrate, this may be inaccurate\n",
      "    Last message repeated 2 times\n",
      "[mp3 @ 0x7fc8daf050c0] Estimating duration from bitrate, this may be inaccurate\n",
      "[mp3 @ 0x7fc8dca043c0] Estimating duration from bitrate, this may be inaccurate\n",
      "[mp3 @ 0x7fc8dc816a80] Estimating duration from bitrate, this may be inaccurate\n",
      "    Last message repeated 1 times\n",
      "[mp3 @ 0x7fc8dcf04080] Estimating duration from bitrate, this may be inaccurate\n",
      "[mp3 @ 0x7fc8dc904680] Estimating duration from bitrate, this may be inaccurate\n",
      "[mp3 @ 0x7fc8dc816a80] Estimating duration from bitrate, this may be inaccurate\n",
      "[mp3 @ 0x7fc8daf04f80] Estimating duration from bitrate, this may be inaccurate\n",
      "[mp3 @ 0x7fc8dc904480] Estimating duration from bitrate, this may be inaccurate\n",
      "[mp3 @ 0x7fc8dcf040c0] Estimating duration from bitrate, this may be inaccurate\n",
      "[mp3 @ 0x7fc8daf04f80] Estimating duration from bitrate, this may be inaccurate\n",
      "    Last message repeated 1 times\n",
      "[mp3 @ 0x7fc8dc816a80] Estimating duration from bitrate, this may be inaccurate\n",
      "[mp3 @ 0x7fc8daf04fc0] Estimating duration from bitrate, this may be inaccurate\n",
      "[mp3 @ 0x7fc8dcf04080] Estimating duration from bitrate, this may be inaccurate\n",
      "[mp3 @ 0x7fc8dcc04080] Estimating duration from bitrate, this may be inaccurate\n",
      "[mp3 @ 0x7fc8dc904500] Estimating duration from bitrate, this may be inaccurate\n",
      "[mp3 @ 0x7fc8daf05000] Estimating duration from bitrate, this may be inaccurate\n",
      "[mp3 @ 0x7fc8dca07f80] Estimating duration from bitrate, this may be inaccurate\n"
     ]
    },
    {
     "name": "stderr",
     "output_type": "stream",
     "text": [
      "[mp3 @ 0x7fc8dc816dc0] Estimating duration from bitrate, this may be inaccurate\n",
      "[mp3 @ 0x7fc8dc9046c0] Estimating duration from bitrate, this may be inaccurate\n",
      "[mp3 @ 0x7fc8dc816a80] Estimating duration from bitrate, this may be inaccurate\n",
      "    Last message repeated 2 times\n",
      "[mp3 @ 0x7fc8dc904500] Estimating duration from bitrate, this may be inaccurate\n",
      "[mp3 @ 0x7fc8dca043c0] Estimating duration from bitrate, this may be inaccurate\n",
      "[mp3 @ 0x7fc8dc816cc0] Estimating duration from bitrate, this may be inaccurate\n",
      "[mp3 @ 0x7fc8dca043c0] Estimating duration from bitrate, this may be inaccurate\n",
      "[mp3 @ 0x7fc8daf04f80] Estimating duration from bitrate, this may be inaccurate\n",
      "[mp3 @ 0x7fc8dc816d80] Estimating duration from bitrate, this may be inaccurate\n",
      "[mp3 @ 0x7fc8dc9044c0] Estimating duration from bitrate, this may be inaccurate\n",
      "[mp3 @ 0x7fc8daf04f80] Estimating duration from bitrate, this may be inaccurate\n",
      "[mp3 @ 0x7fc8dca043c0] Estimating duration from bitrate, this may be inaccurate\n",
      "[mp3 @ 0x7fc8dce04080] Estimating duration from bitrate, this may be inaccurate\n",
      "[mp3 @ 0x7fc8daf05140] Estimating duration from bitrate, this may be inaccurate\n",
      "[mp3 @ 0x7fc8daf05100] Estimating duration from bitrate, this may be inaccurate\n",
      "[mp3 @ 0x7fc8dca07f80] Estimating duration from bitrate, this may be inaccurate\n",
      "[mp3 @ 0x7fc8dc9046c0] Estimating duration from bitrate, this may be inaccurate\n",
      "[mp3 @ 0x7fc8dc816ac0] Estimating duration from bitrate, this may be inaccurate\n",
      "[mp3 @ 0x7fc8daf05140] Estimating duration from bitrate, this may be inaccurate\n",
      "[mp3 @ 0x7fc8dc816a80] Estimating duration from bitrate, this may be inaccurate\n",
      "    Last message repeated 1 times\n",
      "[mp3 @ 0x7fc8dca043c0] Estimating duration from bitrate, this may be inaccurate\n",
      "[mp3 @ 0x7fc8dc904500] Estimating duration from bitrate, this may be inaccurate\n",
      "[mp3 @ 0x7fc8daf04f80] Estimating duration from bitrate, this may be inaccurate\n",
      "[mp3 @ 0x7fc8dca043c0] Estimating duration from bitrate, this may be inaccurate\n",
      "    Last message repeated 1 times\n",
      "[mp3 @ 0x7fc8dc9046c0] Estimating duration from bitrate, this may be inaccurate\n",
      "[mp3 @ 0x7fc8dc9044c0] Estimating duration from bitrate, this may be inaccurate\n",
      "[mp3 @ 0x7fc8dc904480] Estimating duration from bitrate, this may be inaccurate\n",
      "[mp3 @ 0x7fc8dce04080] Estimating duration from bitrate, this may be inaccurate\n",
      "[mp3 @ 0x7fc8daf04f80] Estimating duration from bitrate, this may be inaccurate\n",
      "    Last message repeated 1 times\n",
      "[mp3 @ 0x7fc8dc904700] Estimating duration from bitrate, this may be inaccurate\n",
      "[mp3 @ 0x7fc8dca07f80] Estimating duration from bitrate, this may be inaccurate\n",
      "[mp3 @ 0x7fc8daf04fc0] Estimating duration from bitrate, this may be inaccurate\n",
      "[mp3 @ 0x7fc8daf04f80] Estimating duration from bitrate, this may be inaccurate\n",
      "[mp3 @ 0x7fc8dc904540] Estimating duration from bitrate, this may be inaccurate\n",
      "[mp3 @ 0x7fc8dc816a80] Estimating duration from bitrate, this may be inaccurate\n",
      "[mp3 @ 0x7fc8dca07f80] Estimating duration from bitrate, this may be inaccurate\n",
      "[mp3 @ 0x7fc8daf04f80] Estimating duration from bitrate, this may be inaccurate\n",
      "[mp3 @ 0x7fc8dca043c0] Estimating duration from bitrate, this may be inaccurate\n",
      "[mp3 @ 0x7fc8dc816c40] Estimating duration from bitrate, this may be inaccurate\n",
      "[mp3 @ 0x7fc8dca043c0] Estimating duration from bitrate, this may be inaccurate\n",
      "[mp3 @ 0x7fc8dca080c0] Estimating duration from bitrate, this may be inaccurate\n",
      "[mp3 @ 0x7fc8dc816a80] Estimating duration from bitrate, this may be inaccurate\n",
      "    Last message repeated 1 times\n",
      "[mp3 @ 0x7fc8dc816f40] Estimating duration from bitrate, this may be inaccurate\n",
      "[mp3 @ 0x7fc8dc816a80] Estimating duration from bitrate, this may be inaccurate\n",
      "    Last message repeated 1 times\n",
      "[mp3 @ 0x7fc8dca07f80] Estimating duration from bitrate, this may be inaccurate\n",
      "[mp3 @ 0x7fc8daf04f80] Estimating duration from bitrate, this may be inaccurate\n",
      "[mp3 @ 0x7fc8dc904500] Estimating duration from bitrate, this may be inaccurate\n",
      "[mp3 @ 0x7fc8dc904480] Estimating duration from bitrate, this may be inaccurate\n",
      "[mp3 @ 0x7fc8dc816a80] Estimating duration from bitrate, this may be inaccurate\n",
      "[mp3 @ 0x7fc8daf04f80] Estimating duration from bitrate, this may be inaccurate\n",
      "[mp3 @ 0x7fc8dc904500] Estimating duration from bitrate, this may be inaccurate\n",
      "[mp3 @ 0x7fc8dc816c40] Estimating duration from bitrate, this may be inaccurate\n",
      "[mp3 @ 0x7fc8daf04f80] Estimating duration from bitrate, this may be inaccurate\n",
      "[mp3 @ 0x7fc8dc816a80] Estimating duration from bitrate, this may be inaccurate\n",
      "[mp3 @ 0x7fc8dca07f80] Estimating duration from bitrate, this may be inaccurate\n",
      "[mp3 @ 0x7fc8dca043c0] Estimating duration from bitrate, this may be inaccurate\n",
      "[mp3 @ 0x7fc8dca07f80] Estimating duration from bitrate, this may be inaccurate\n",
      "[mp3 @ 0x7fc8dc904500] Estimating duration from bitrate, this may be inaccurate\n",
      "[mp3 @ 0x7fc8dc816a80] Estimating duration from bitrate, this may be inaccurate\n",
      "[mp3 @ 0x7fc8daf04f80] Estimating duration from bitrate, this may be inaccurate\n",
      "[mp3 @ 0x7fc8dca043c0] Estimating duration from bitrate, this may be inaccurate\n",
      "[mp3 @ 0x7fc8dc816a80] Estimating duration from bitrate, this may be inaccurate\n",
      "[mp3 @ 0x7fc8daf04f80] Estimating duration from bitrate, this may be inaccurate\n",
      "    Last message repeated 1 times\n",
      "[mp3 @ 0x7fc8dc904500] Estimating duration from bitrate, this may be inaccurate\n",
      "[mp3 @ 0x7fc8daf04f80] Estimating duration from bitrate, this may be inaccurate\n",
      "[mp3 @ 0x7fc8dc904640] Estimating duration from bitrate, this may be inaccurate\n",
      "[mp3 @ 0x7fc8dc904600] Estimating duration from bitrate, this may be inaccurate\n",
      "[mp3 @ 0x7fc8dca043c0] Estimating duration from bitrate, this may be inaccurate\n",
      "    Last message repeated 1 times\n",
      "[mp3 @ 0x7fc8daf05000] Estimating duration from bitrate, this may be inaccurate\n",
      "[mp3 @ 0x7fc8dcd04080] Estimating duration from bitrate, this may be inaccurate\n",
      "[mp3 @ 0x7fc8dca043c0] Estimating duration from bitrate, this may be inaccurate\n",
      "[mp3 @ 0x7fc8daf04f80] Estimating duration from bitrate, this may be inaccurate\n",
      "    Last message repeated 1 times\n",
      "[mp3 @ 0x7fc8daf05440] Estimating duration from bitrate, this may be inaccurate\n",
      "[mp3 @ 0x7fc8dc904d00] Estimating duration from bitrate, this may be inaccurate\n",
      "[mp3 @ 0x7fc8dc9046c0] Estimating duration from bitrate, this may be inaccurate\n",
      "[mp3 @ 0x7fc8daf04f80] Estimating duration from bitrate, this may be inaccurate\n",
      "    Last message repeated 1 times\n",
      "[mp3 @ 0x7fc8dc904500] Estimating duration from bitrate, this may be inaccurate\n",
      "[mp3 @ 0x7fc8dc9044c0] Estimating duration from bitrate, this may be inaccurate\n",
      "[mp3 @ 0x7fc8dca043c0] Estimating duration from bitrate, this may be inaccurate\n",
      "[mp3 @ 0x7fc8dc816a80] Estimating duration from bitrate, this may be inaccurate\n",
      "    Last message repeated 2 times\n",
      "[mp3 @ 0x7fc8dc816f00] Estimating duration from bitrate, this may be inaccurate\n",
      "[mp3 @ 0x7fc8dca043c0] Estimating duration from bitrate, this may be inaccurate\n",
      "    Last message repeated 1 times\n",
      "[mp3 @ 0x7fc8dc904640] Estimating duration from bitrate, this may be inaccurate\n",
      "[mp3 @ 0x7fc8dc904600] Estimating duration from bitrate, this may be inaccurate\n",
      "[mp3 @ 0x7fc8dc816a80] Estimating duration from bitrate, this may be inaccurate\n",
      "[mp3 @ 0x7fc8dca043c0] Estimating duration from bitrate, this may be inaccurate\n",
      "[mp3 @ 0x7fc8dc904480] Estimating duration from bitrate, this may be inaccurate\n",
      "[mp3 @ 0x7fc8dca04580] Estimating duration from bitrate, this may be inaccurate\n",
      "[mp3 @ 0x7fc8dc904740] Estimating duration from bitrate, this may be inaccurate\n",
      "[mp3 @ 0x7fc8dc816a80] Estimating duration from bitrate, this may be inaccurate\n",
      "[mp3 @ 0x7fc8dca043c0] Estimating duration from bitrate, this may be inaccurate\n",
      "[mp3 @ 0x7fc8daf04f80] Estimating duration from bitrate, this may be inaccurate\n",
      "[mp3 @ 0x7fc8dca043c0] Estimating duration from bitrate, this may be inaccurate\n",
      "    Last message repeated 1 times\n",
      "[mp3 @ 0x7fc8daf04f80] Estimating duration from bitrate, this may be inaccurate\n",
      "[mp3 @ 0x7fc8dc816dc0] Estimating duration from bitrate, this may be inaccurate\n",
      "[mp3 @ 0x7fc8dc816d00] Estimating duration from bitrate, this may be inaccurate\n",
      "[mp3 @ 0x7fc8dc816a80] Estimating duration from bitrate, this may be inaccurate\n",
      "[mp3 @ 0x7fc8dc904540] Estimating duration from bitrate, this may be inaccurate\n"
     ]
    },
    {
     "name": "stdout",
     "output_type": "stream",
     "text": [
      "Generate full audio: ./JourneyToTheCentreOfTheEarth/project_file/audio/18857-1_txt.mp3\n",
      "./JourneyToTheCentreOfTheEarth/project_file/audio/18857-1_txt.mp3\n"
     ]
    },
    {
     "name": "stderr",
     "output_type": "stream",
     "text": [
      "[mp3 @ 0x7fc8dc816a80] Estimating duration from bitrate, this may be inaccurate\n",
      "[mp3 @ 0x7fc8dc9044c0] Estimating duration from bitrate, this may be inaccurate\n",
      "[mp3 @ 0x7fc8dca043c0] Estimating duration from bitrate, this may be inaccurate\n",
      "[mp3 @ 0x7fc8dc9044c0] Estimating duration from bitrate, this may be inaccurate\n",
      "[mp3 @ 0x7fc8dca043c0] Estimating duration from bitrate, this may be inaccurate\n",
      "[mp3 @ 0x7fc8dc9044c0] Estimating duration from bitrate, this may be inaccurate\n",
      "[mp3 @ 0x7fc8dc816d80] Estimating duration from bitrate, this may be inaccurate\n",
      "[mp3 @ 0x7fc8dc816c40] Estimating duration from bitrate, this may be inaccurate\n",
      "[mp3 @ 0x7fc8dca043c0] Estimating duration from bitrate, this may be inaccurate\n",
      "[mp3 @ 0x7fc8dc816a80] Estimating duration from bitrate, this may be inaccurate\n",
      "[mp3 @ 0x7fc8daf04f80] Estimating duration from bitrate, this may be inaccurate\n",
      "    Last message repeated 1 times\n",
      "[mp3 @ 0x7fc8dc816a80] Estimating duration from bitrate, this may be inaccurate\n",
      "size=  128418kB time=09:07:54.98 bitrate=  32.0kbits/s speed=4.39e+03x    \n",
      "video:0kB audio:128418kB subtitle:0kB other streams:0kB global headers:0kB muxing overhead: 0.000180%\n"
     ]
    }
   ],
   "source": [
    "# Merge audio files => full length\n",
    "print(test_tta.merge_audio_files(file_name))"
   ]
  },
  {
   "cell_type": "code",
   "execution_count": 23,
   "id": "b382e4e1",
   "metadata": {},
   "outputs": [
    {
     "name": "stderr",
     "output_type": "stream",
     "text": [
      "ffmpeg version 5.1.2 Copyright (c) 2000-2022 the FFmpeg developers\n",
      "  built with Apple clang version 14.0.0 (clang-1400.0.29.102)\n",
      "  configuration: --prefix=/usr/local/Cellar/ffmpeg/5.1.2 --enable-shared --enable-pthreads --enable-version3 --cc=clang --host-cflags= --host-ldflags= --enable-ffplay --enable-gnutls --enable-gpl --enable-libaom --enable-libbluray --enable-libdav1d --enable-libmp3lame --enable-libopus --enable-librav1e --enable-librist --enable-librubberband --enable-libsnappy --enable-libsrt --enable-libtesseract --enable-libtheora --enable-libvidstab --enable-libvmaf --enable-libvorbis --enable-libvpx --enable-libwebp --enable-libx264 --enable-libx265 --enable-libxml2 --enable-libxvid --enable-lzma --enable-libfontconfig --enable-libfreetype --enable-frei0r --enable-libass --enable-libopencore-amrnb --enable-libopencore-amrwb --enable-libopenjpeg --enable-libspeex --enable-libsoxr --enable-libzmq --enable-libzimg --disable-libjack --disable-indev=jack --enable-videotoolbox\n",
      "  libavutil      57. 28.100 / 57. 28.100\n",
      "  libavcodec     59. 37.100 / 59. 37.100\n",
      "  libavformat    59. 27.100 / 59. 27.100\n",
      "  libavdevice    59.  7.100 / 59.  7.100\n",
      "  libavfilter     8. 44.100 /  8. 44.100\n",
      "  libswscale      6.  7.100 /  6.  7.100\n",
      "  libswresample   4.  7.100 /  4.  7.100\n",
      "  libpostproc    56.  6.100 / 56.  6.100\n",
      "Input #0, png_pipe, from './JourneyToTheCentreOfTheEarth/project_file/image/18857-1_txt.png':\n",
      "  Duration: N/A, bitrate: N/A\n",
      "  Stream #0:0: Video: png, rgba(pc), 1280x720 [SAR 2835:2835 DAR 16:9], 25 fps, 25 tbr, 25 tbn\n",
      "Input #1, mp3, from './JourneyToTheCentreOfTheEarth/project_file/audio/18857-1_txt.mp3':\n",
      "  Metadata:\n",
      "    encoder         : Lavf59.27.100\n",
      "  Duration: 09:07:54.98, start: 0.022042, bitrate: 32 kb/s\n",
      "  Stream #1:0: Audio: mp3, 24000 Hz, mono, fltp, 32 kb/s\n",
      "Stream mapping:\n",
      "  Stream #0:0 -> #0:0 (png (native) -> h264 (libx264))\n",
      "  Stream #1:0 -> #0:1 (mp3 (mp3float) -> aac (native))\n",
      "Press [q] to stop, [?] for help\n",
      "[libx264 @ 0x7fe7d220c000] using SAR=1/1\n",
      "[libx264 @ 0x7fe7d220c000] using cpu capabilities: MMX2 SSE2Fast SSSE3 SSE4.2 AVX FMA3 BMI2 AVX2\n",
      "[libx264 @ 0x7fe7d220c000] profile High, level 3.1, 4:2:0, 8-bit\n",
      "[libx264 @ 0x7fe7d220c000] 264 - core 164 r3095 baee400 - H.264/MPEG-4 AVC codec - Copyleft 2003-2022 - http://www.videolan.org/x264.html - options: cabac=1 ref=3 deblock=1:-3:-3 analyse=0x3:0x113 me=hex subme=7 psy=1 psy_rd=2.00:0.70 mixed_ref=1 me_range=16 chroma_me=1 trellis=1 8x8dct=1 cqm=0 deadzone=21,11 fast_pskip=1 chroma_qp_offset=-4 threads=12 lookahead_threads=2 sliced_threads=0 nr=0 decimate=1 interlaced=0 bluray_compat=0 constrained_intra=0 bframes=3 b_pyramid=2 b_adapt=1 b_bias=0 direct=1 weightb=1 open_gop=0 weightp=2 keyint=250 keyint_min=25 scenecut=40 intra_refresh=0 rc_lookahead=40 rc=crf mbtree=1 crf=23.0 qcomp=0.60 qpmin=0 qpmax=69 qpstep=4 ip_ratio=1.40 aq=1:1.20\n",
      "[aac @ 0x7fe7d220d440] Too many bits 8192.000000 > 6144 per frame requested, clamping to max\n",
      "Output #0, mp4, to './JourneyToTheCentreOfTheEarth/project_file/video/18857-1_txt.mp4':\n",
      "  Metadata:\n",
      "    encoder         : Lavf59.27.100\n",
      "  Stream #0:0: Video: h264 (avc1 / 0x31637661), yuv420p(tv, progressive), 1280x720 [SAR 1:1 DAR 16:9], q=2-31, 25 fps, 12800 tbn\n",
      "    Metadata:\n",
      "      encoder         : Lavc59.37.100 libx264\n",
      "    Side data:\n",
      "      cpb: bitrate max/min/avg: 0/0/0 buffer size: 0 vbv_delay: N/A\n",
      "  Stream #0:1: Audio: aac (LC) (mp4a / 0x6134706D), 24000 Hz, mono, fltp, 144 kb/s\n",
      "    Metadata:\n",
      "      encoder         : Lavc59.37.100 aac\n",
      "frame=821913 fps=114 q=28.0 size= 1151744kB time=09:07:54.19 bitrate= 287.0kbits/s speed=4.55x    \r"
     ]
    },
    {
     "name": "stdout",
     "output_type": "stream",
     "text": [
      "Generate full video: ./JourneyToTheCentreOfTheEarth/project_file/video/18857-1_txt.mp4\n",
      "./JourneyToTheCentreOfTheEarth/project_file/video/18857-1_txt.mp4\n"
     ]
    },
    {
     "name": "stderr",
     "output_type": "stream",
     "text": [
      "frame=821930 fps=114 q=-1.0 Lsize= 1171632kB time=09:07:57.08 bitrate= 291.9kbits/s speed=4.55x    \n",
      "video:806473kB audio:345305kB subtitle:0kB other streams:0kB global headers:0kB muxing overhead: 1.723760%\n",
      "[libx264 @ 0x7fe7d220c000] frame I:3288  Avg QP:11.49  size:147650\n",
      "[libx264 @ 0x7fe7d220c000] frame P:207126 Avg QP:12.82  size:  1211\n",
      "[libx264 @ 0x7fe7d220c000] frame B:611516 Avg QP:19.36  size:   146\n",
      "[libx264 @ 0x7fe7d220c000] consecutive B-frames:  0.8%  0.0%  0.0% 99.2%\n",
      "[libx264 @ 0x7fe7d220c000] mb I  I16..4:  8.3% 62.9% 28.9%\n",
      "[libx264 @ 0x7fe7d220c000] mb P  I16..4:  0.0%  0.0%  0.0%  P16..4:  3.5%  0.3%  0.5%  0.0%  0.0%    skip:95.7%\n",
      "[libx264 @ 0x7fe7d220c000] mb B  I16..4:  0.0%  0.0%  0.0%  B16..8:  3.7%  0.0%  0.0%  direct: 0.0%  skip:96.3%  L0:65.6% L1:34.1% BI: 0.3%\n",
      "[libx264 @ 0x7fe7d220c000] 8x8 transform intra:63.0% inter:92.0%\n",
      "[libx264 @ 0x7fe7d220c000] coded y,uvDC,uvAC intra: 97.5% 96.2% 95.7% inter: 0.6% 0.1% 0.0%\n",
      "[libx264 @ 0x7fe7d220c000] i16 v,h,dc,p:  2%  5%  4% 89%\n",
      "[libx264 @ 0x7fe7d220c000] i8 v,h,dc,ddl,ddr,vr,hd,vl,hu:  7% 32% 19%  6%  6%  4% 11%  4% 12%\n",
      "[libx264 @ 0x7fe7d220c000] i4 v,h,dc,ddl,ddr,vr,hd,vl,hu: 10% 24% 11%  9% 10%  7% 10%  5% 13%\n",
      "[libx264 @ 0x7fe7d220c000] i8c dc,h,v,p: 43% 29%  9% 20%\n",
      "[libx264 @ 0x7fe7d220c000] Weighted P-Frames: Y:0.0% UV:0.0%\n",
      "[libx264 @ 0x7fe7d220c000] ref P L0: 49.0%  0.1% 49.9%  1.0%\n",
      "[libx264 @ 0x7fe7d220c000] ref B L0: 45.7% 54.2%  0.1%\n",
      "[libx264 @ 0x7fe7d220c000] ref B L1: 97.7%  2.3%\n",
      "[libx264 @ 0x7fe7d220c000] kb/s:200.95\n",
      "[aac @ 0x7fe7d220d440] Qavg: 65520.461\n"
     ]
    }
   ],
   "source": [
    "# Audio + Image => Video\n",
    "print(test_tta.merge_video_file(file_name))"
   ]
  },
  {
   "cell_type": "code",
   "execution_count": 20,
   "id": "004bc195",
   "metadata": {},
   "outputs": [
    {
     "name": "stdout",
     "output_type": "stream",
     "text": [
      "0:00:00 Chapter 1\n",
      "0:12:47 Chaptor 2\n",
      "0:20:52 Chaptor 3\n",
      "0:37:06 Chaptor 4\n",
      "0:45:08 Chaptor 5\n",
      "0:53:02 Chaptor 6\n",
      "1:06:47 Chaptor 7\n",
      "1:15:29 Chaptor 8\n",
      "1:30:44 Chaptor 9\n",
      "1:43:16 Chaptor 10\n",
      "1:55:09 Chaptor 11\n",
      "2:08:33 Chaptor 12\n",
      "2:24:48 Chaptor 13\n",
      "2:39:44 Chaptor 14\n",
      "2:51:46 Chaptor 15\n",
      "3:03:32 Chaptor 16\n",
      "3:15:32 Chaptor 17\n",
      "3:27:37 Chaptor 18\n",
      "3:39:01 Chaptor 19\n",
      "3:46:22 Chaptor 20\n",
      "3:58:26 Chaptor 21\n",
      "4:07:01 Chaptor 22\n",
      "4:17:49 Chaptor 23\n",
      "4:25:18 Chaptor 24\n",
      "4:35:17 Chaptor 25\n",
      "4:49:21 Chaptor 26\n",
      "4:58:56 Chaptor 27\n",
      "5:15:41 Chaptor 28\n",
      "5:28:34 Chaptor 29\n",
      "5:46:56 Chaptor 30\n",
      "6:06:34 Chaptor 31\n",
      "6:18:35 Chaptor 32\n",
      "6:33:07 Chaptor 33\n",
      "6:49:17 Chaptor 34\n",
      "7:00:54 Chaptor 35\n",
      "7:15:40 Chaptor 36\n",
      "7:24:53 Chaptor 37\n",
      "7:32:45 Chaptor 38\n",
      "7:46:39 Chaptor 39\n",
      "8:00:00 Chaptor 40\n",
      "8:13:57 Chaptor 41\n",
      "8:28:28 Chaptor 42\n",
      "8:48:07 Chaptor 43\n",
      "9:00:52 Chaptor 44\n"
     ]
    }
   ],
   "source": [
    "print(test_tta.gen_youtube_chapter_marker(file_name))"
   ]
  },
  {
   "cell_type": "code",
   "execution_count": null,
   "id": "a692882a",
   "metadata": {},
   "outputs": [],
   "source": []
  }
 ],
 "metadata": {
  "kernelspec": {
   "display_name": "Python tts env",
   "language": "python",
   "name": "tts_env"
  },
  "language_info": {
   "codemirror_mode": {
    "name": "ipython",
    "version": 3
   },
   "file_extension": ".py",
   "mimetype": "text/x-python",
   "name": "python",
   "nbconvert_exporter": "python",
   "pygments_lexer": "ipython3",
   "version": "3.9.12"
  }
 },
 "nbformat": 4,
 "nbformat_minor": 5
}
